<svg width="48" height="48" viewBox="0 0 152 141" fill="none" xmlns="http://www.w3.org/2000/svg">
<path d="M7 62.9001L6 62.5001L6.3 61.8001C7.9 57.9001 12.2 47.6001 21.9 40.6001L22.5 41.5001C13 48.3001 8.8 58.4001 7.2 62.3001L7 62.9001Z" fill="#C0BEC0"/>
<path d="M22.8 98.3C18.4 95.4 8.5 84.3 6 71.7L7 71.5C9.5 84 19.6 95 23.4 97.4L22.8 98.3Z" fill="#C0BEC0"/>
<path d="M73.8 129.3C60.2 126.1 46.6 113.7 46.4 113.6L47.1 112.8C47.2 112.9 60.6 125.1 74 128.2L73.8 129.3Z" fill="#C0BEC0"/>
<path d="M86.6001 129.6L86.3 128.6C86.4 128.6 98.8001 124.8 104 112.3L105 112.7C99.5001 125.7 86.7001 129.6 86.6001 129.6Z" fill="#C0BEC0"/>
<path d="M37.7001 27.5999L36.8 26.9999C36.9 26.7999 47.0001 11.6999 62.6001 7.89992C78.2001 4.09992 100.4 23.4999 101.3 24.3999L100.6 25.1999C100.4 24.9999 77.9 5.29992 62.9 8.99992C47.7 12.5999 37.8001 27.3999 37.7001 27.5999Z" fill="#C0BEC0"/>
<path d="M41.7 46C41.7 46 53.6 62.8 54.6 73.6C54.6 73.6 43 50.8 38.1 47.2C33.2 43.6 41.7 46 41.7 46Z" fill="#F16937"/>
<path d="M54.5 73.7L45 96.2999L38.6 91.1L54.5 73.7Z" fill="#0FBBD0"/>
<path d="M54.5 73.7C54.5 73.7 82 42.2 100.1 34.4L100.9 26.8C100.9 26.7 70.8 44 54.5 73.7Z" fill="#0FBBD0"/>
<path d="M133.4 90.4999L132.7 89.6999C137 85.7999 142.1 80.3999 143.8 72.8999L144.8 73.0999C143.1 80.8999 137.8 86.4999 133.4 90.4999Z" fill="#C0BEC0"/>
<path d="M119.3 100.5L118.8 99.5C118.9 99.5 125.7 96.1 132.7 89.7L133.4 90.5C126.2 97 119.3 100.4 119.3 100.5Z" fill="#0FBBD0"/>
<path d="M147.1 64.4L146 64.2C149.3 41.5 127.7 31.6 127.5 31.5L127.9 30.5C128.1 30.7 150.4 40.9 147.1 64.4Z" fill="#C0BEC0"/>
<path d="M114.6 44.1001C123.16 44.1001 130.1 37.1605 130.1 28.6001C130.1 20.0397 123.16 13.1001 114.6 13.1001C106.04 13.1001 99.1 20.0397 99.1 28.6001C99.1 37.1605 106.04 44.1001 114.6 44.1001Z" fill="#0FBBD0"/>
<path d="M35.8 118.1C44.0291 118.1 50.7 111.429 50.7 103.2C50.7 94.971 44.0291 88.3 35.8 88.3C27.571 88.3 20.9 94.971 20.9 103.2C20.9 111.429 27.571 118.1 35.8 118.1Z" fill="#0FBBD0"/>
<path d="M34.3 50.6001C41.2036 50.6001 46.8 45.0037 46.8 38.1001C46.8 31.1965 41.2036 25.6001 34.3 25.6001C27.3965 25.6001 21.8 31.1965 21.8 38.1001C21.8 45.0037 27.3965 50.6001 34.3 50.6001Z" fill="#F16937"/>
<path d="M110.5 114.4C116.686 114.4 121.7 109.386 121.7 103.2C121.7 97.0144 116.686 92 110.5 92C104.314 92 99.3 97.0144 99.3 103.2C99.3 109.386 104.314 114.4 110.5 114.4Z" fill="#0FBBD0"/>
<path d="M81.3 140.9C85.884 140.9 89.6 137.184 89.6 132.6C89.6 128.016 85.884 124.3 81.3 124.3C76.716 124.3 73 128.016 73 132.6C73 137.184 76.716 140.9 81.3 140.9Z" fill="#81A1D4"/>
<path d="M60.5 13.6C64.2555 13.6 67.2999 10.5555 67.2999 6.8C67.2999 3.04446 64.2555 0 60.5 0C56.7444 0 53.7 3.04446 53.7 6.8C53.7 10.5555 56.7444 13.6 60.5 13.6Z" fill="#0FBBD0"/>
<path d="M4.9 72.1999C7.6062 72.1999 9.8 70.0061 9.8 67.2999C9.8 64.5937 7.6062 62.3999 4.9 62.3999C2.19381 62.3999 0 64.5937 0 67.2999C0 70.0061 2.19381 72.1999 4.9 72.1999Z" fill="#8399C3"/>
<path d="M145.6 74.6001C148.858 74.6001 151.5 71.9585 151.5 68.7001C151.5 65.4416 148.858 62.8 145.6 62.8C142.341 62.8 139.7 65.4416 139.7 68.7001C139.7 71.9585 142.341 74.6001 145.6 74.6001Z" fill="#F26C3F"/>
<path d="M59.3 12.8C67.6 12.8 67.6 0 59.3 0C51 0 51 12.8 59.3 12.8Z" fill="#0FBBD0"/>
</svg>
