<svg width="193" height="45" viewBox="0 0 193 45" fill="none" xmlns="http://www.w3.org/2000/svg">
<path d="M7.4659 20.7815L7.23828 20.6905L7.30657 20.5311C7.67075 19.6434 8.64951 17.299 10.8574 15.7056L10.994 15.9105C8.8316 17.4583 7.87561 19.7572 7.51142 20.6449L7.4659 20.7815Z" fill="#C0BEC0"/>
<path d="M11.0623 28.8392C10.0607 28.1791 7.80733 25.6525 7.23828 22.7845L7.4659 22.739C8.03494 25.5842 10.3339 28.088 11.1988 28.6343L11.0623 28.8392Z" fill="#C0BEC0"/>
<path d="M22.6708 35.8953C19.5752 35.167 16.4796 32.3445 16.4341 32.3217L16.5934 32.1396C16.6162 32.1624 19.6663 34.9393 22.7163 35.645L22.6708 35.8953Z" fill="#C0BEC0"/>
<path d="M25.5842 35.9636L25.5159 35.736C25.5386 35.736 28.3611 34.871 29.5447 32.0258L29.7723 32.1169C28.5204 35.0759 25.6069 35.9636 25.5842 35.9636Z" fill="#C0BEC0"/>
<path d="M14.4536 12.7466L14.2488 12.61C14.2715 12.5645 16.5705 9.12748 20.1213 8.26254C23.6721 7.39759 28.7253 11.8134 28.9301 12.0182L28.7708 12.2003C28.7253 12.1548 23.6039 7.67073 20.1896 8.51292C16.7298 9.33234 14.4764 12.7011 14.4536 12.7466Z" fill="#C0BEC0"/>
<path d="M15.3643 16.9348C15.3643 16.9348 18.073 20.7588 18.3006 23.217C18.3006 23.217 15.6602 18.0274 14.5449 17.2079C13.4296 16.3885 15.3643 16.9348 15.3643 16.9348Z" fill="#FF7228"/>
<path d="M18.2778 23.2397L16.1154 28.3839L14.6587 27.2003L18.2778 23.2397Z" fill="#0FBBD0"/>
<path d="M18.2778 23.2398C18.2778 23.2398 24.5373 16.0698 28.6572 14.2944L28.8393 12.5645C28.8393 12.5417 21.988 16.4795 18.2778 23.2398Z" fill="#0FBBD0"/>
<path d="M36.2367 27.0637L36.0774 26.8817C37.0561 25.9939 38.217 24.7648 38.6039 23.0577L38.8316 23.1032C38.4446 24.8786 37.2382 26.1533 36.2367 27.0637Z" fill="#C0BEC0"/>
<path d="M33.0274 29.3399L32.9136 29.1123C32.9363 29.1123 34.4841 28.3384 36.0775 26.8817L36.2368 27.0637C34.5979 28.5433 33.0274 29.3172 33.0274 29.3399Z" fill="#0FBBD0"/>
<path d="M39.3551 21.1229L39.1047 21.0774C39.8559 15.9105 34.9393 13.6571 34.8938 13.6343L34.9848 13.4067C35.0304 13.4522 40.1062 15.7739 39.3551 21.1229Z" fill="#C0BEC0"/>
<path d="M31.9575 16.5023C33.906 16.5023 35.4856 14.9227 35.4856 12.9742C35.4856 11.0257 33.906 9.44617 31.9575 9.44617C30.009 9.44617 28.4294 11.0257 28.4294 12.9742C28.4294 14.9227 30.009 16.5023 31.9575 16.5023Z" fill="#0FBBD0"/>
<path d="M14.0214 33.346C15.8945 33.346 17.4129 31.8276 17.4129 29.9545C17.4129 28.0814 15.8945 26.563 14.0214 26.563C12.1483 26.563 10.6299 28.0814 10.6299 29.9545C10.6299 31.8276 12.1483 33.346 14.0214 33.346Z" fill="#0FBBD0"/>
<path d="M13.6799 17.9818C15.2513 17.9818 16.5252 16.708 16.5252 15.1366C16.5252 13.5652 15.2513 12.2914 13.6799 12.2914C12.1086 12.2914 10.8347 13.5652 10.8347 15.1366C10.8347 16.708 12.1086 17.9818 13.6799 17.9818Z" fill="#FF7228"/>
<path d="M31.0244 32.5038C32.4324 32.5038 33.5737 31.3624 33.5737 29.9545C33.5737 28.5465 32.4324 27.4052 31.0244 27.4052C29.6165 27.4052 28.4751 28.5465 28.4751 29.9545C28.4751 31.3624 29.6165 32.5038 31.0244 32.5038Z" fill="#0FBBD0"/>
<path d="M24.3778 38.5357C25.4211 38.5357 26.267 37.6898 26.267 36.6464C26.267 35.603 25.4211 34.7572 24.3778 34.7572C23.3344 34.7572 22.4885 35.603 22.4885 36.6464C22.4885 37.6898 23.3344 38.5357 24.3778 38.5357Z" fill="#81A1D4"/>
<path d="M19.6435 9.55996C20.4983 9.55996 21.1913 8.86698 21.1913 8.01216C21.1913 7.15733 20.4983 6.46436 19.6435 6.46436C18.7887 6.46436 18.0957 7.15733 18.0957 8.01216C18.0957 8.86698 18.7887 9.55996 19.6435 9.55996Z" fill="#0FBBD0"/>
<path d="M6.98789 22.8984C7.60386 22.8984 8.10321 22.399 8.10321 21.783C8.10321 21.1671 7.60386 20.6677 6.98789 20.6677C6.37191 20.6677 5.87256 21.1671 5.87256 21.783C5.87256 22.399 6.37191 22.8984 6.98789 22.8984Z" fill="#8399C3"/>
<path d="M39.0136 23.4446C39.7553 23.4446 40.3565 22.8434 40.3565 22.1017C40.3565 21.36 39.7553 20.7587 39.0136 20.7587C38.2719 20.7587 37.6707 21.36 37.6707 22.1017C37.6707 22.8434 38.2719 23.4446 39.0136 23.4446Z" fill="#F26C3F"/>
<path d="M19.3703 9.37786C21.2595 9.37786 21.2595 6.46436 19.3703 6.46436C17.4811 6.46436 17.4811 9.37786 19.3703 9.37786Z" fill="#0FBBD0"/>
<path d="M47.959 28.3611V20.0759C47.959 19.5296 47.9362 18.4825 47.8679 17.7997H49.8482C49.8937 18.346 49.9392 19.0971 49.9392 19.5296H50.0075C50.531 18.3915 51.9195 17.5038 53.4446 17.5038C56.1532 17.5038 57.3823 19.4385 57.3823 21.8058V28.3611H55.2883V22.5114C55.2883 20.8042 54.8103 19.2792 52.8755 19.2792C51.2367 19.2792 50.053 20.6677 50.053 22.7618V28.3839H47.959V28.3611Z" fill="#231F20"/>
<path d="M60.5461 23.1032C60.5461 19.8027 62.9134 17.5038 66.009 17.5038C69.1273 17.5038 71.0848 19.6206 71.0848 22.9894C71.0848 23.217 71.0848 23.4674 71.0621 23.695H62.6857C62.754 25.4932 64.2791 26.9044 66.1228 26.9044C67.5568 26.9044 68.6038 26.1988 69.1956 25.2883L70.6751 26.4719C69.537 27.9514 67.9892 28.6343 66.1228 28.6343C62.9134 28.657 60.5461 26.4264 60.5461 23.1032ZM68.9908 22.1472C68.9452 20.4856 67.9665 19.1654 66.0317 19.1654C64.2335 19.1654 62.8451 20.5083 62.7085 22.1472H68.9908Z" fill="#231F20"/>
<path d="M73.1108 26.7678L74.6131 25.4932C75.1594 26.3126 76.2292 26.9727 77.4128 26.9727C78.4599 26.9727 79.5069 26.5857 79.5069 25.4249C79.5069 24.4461 78.5509 24.0819 76.7527 23.6722C75.3415 23.3308 73.6799 22.739 73.6799 20.7587C73.6799 18.4825 75.6602 17.5266 77.6632 17.5266C79.1655 17.5266 80.736 18.1184 81.4872 19.2564L80.0304 20.4856C79.5524 19.7344 78.6419 19.1654 77.5721 19.1654C76.6161 19.1654 75.6146 19.5523 75.6146 20.5539C75.6146 21.4416 76.4113 21.783 78.0274 22.1472C80.0304 22.6024 81.5782 23.4218 81.5782 25.2655C81.5782 27.7693 79.5069 28.6798 77.3673 28.6798C75.7512 28.6571 74.1124 28.0425 73.1108 26.7678Z" fill="#231F20"/>
<path d="M83.3081 26.7678L84.8104 25.4932C85.3567 26.3126 86.4265 26.9727 87.6101 26.9727C88.6571 26.9727 89.7042 26.5857 89.7042 25.4249C89.7042 24.4461 88.7482 24.0819 86.95 23.6722C85.5388 23.3308 83.8771 22.739 83.8771 20.7587C83.8771 18.4825 85.8574 17.5266 87.8605 17.5266C89.3627 17.5266 90.9333 18.1184 91.6844 19.2564L90.2277 20.4856C89.7497 19.7344 88.8392 19.1654 87.7694 19.1654C86.8134 19.1654 85.8119 19.5523 85.8119 20.5539C85.8119 21.4416 86.6086 21.783 88.2246 22.1472C90.2277 22.6024 91.7755 23.4218 91.7755 25.2655C91.7755 27.7693 89.7042 28.6798 87.5646 28.6798C85.9712 28.6571 84.3096 28.0425 83.3081 26.7678Z" fill="#231F20"/>
<path d="M94.0515 23.0577C94.0515 19.8027 96.5098 17.5038 99.742 17.5038C102.974 17.5038 105.455 19.8027 105.455 23.0577C105.455 26.3126 102.974 28.657 99.742 28.657C96.5098 28.657 94.0515 26.3126 94.0515 23.0577ZM103.27 23.0577C103.27 21.0546 102.018 19.2564 99.742 19.2564C97.4885 19.2564 96.2139 21.0546 96.2139 23.0577C96.2139 25.0607 97.4885 26.8816 99.742 26.8816C102.018 26.9044 103.27 25.0607 103.27 23.0577Z" fill="#231F20"/>
<path d="M113.376 23.0577C113.376 19.9393 115.516 17.5038 118.68 17.5038C120.387 17.5038 121.707 18.346 122.436 19.3703H122.481V11.5175H124.575V28.3612H122.549V26.6996H122.504C121.707 27.9742 120.182 28.6571 118.703 28.6571C115.448 28.6571 113.376 26.1533 113.376 23.0577ZM122.618 23.0804C122.618 21.0546 121.184 19.2565 119.044 19.2565C116.745 19.2565 115.539 21.0774 115.539 23.0577C115.539 25.0379 116.745 26.8816 119.044 26.8816C121.207 26.9044 122.618 25.1062 122.618 23.0804Z" fill="#0B5ED7"/>
<path d="M127.671 13.9985C127.671 13.2474 128.285 12.6328 129.059 12.6328C129.81 12.6328 130.471 13.2019 130.471 13.9985C130.471 14.7497 129.833 15.3415 129.059 15.3415C128.285 15.3187 127.671 14.7269 127.671 13.9985ZM127.99 28.3612V17.7997H130.084V28.3612H127.99Z" fill="#0B5ED7"/>
<path d="M132.974 31.7982L134.317 30.1821C135.228 31.2064 136.73 31.8892 138.164 31.8892C140.941 31.8892 141.897 30.1821 141.897 27.997V26.6312H141.851C141.078 27.8149 139.621 28.4522 138.118 28.4522C134.886 28.4522 132.792 26.0394 132.792 23.0121C132.792 19.9848 134.864 17.5038 138.096 17.5038C139.621 17.5038 141.1 18.1639 141.897 19.4841H141.942V17.7997H143.968V27.8376C143.968 30.9105 142.511 33.7329 138.118 33.7329C136.32 33.7102 134.295 33.0045 132.974 31.7982ZM142.034 22.9666C142.034 20.9636 140.577 19.2337 138.437 19.2337C136.229 19.2337 134.932 20.918 134.932 22.9666C134.932 24.9014 136.229 26.6995 138.437 26.6995C140.622 26.6995 142.034 25.0607 142.034 22.9666Z" fill="#0B5ED7"/>
<path d="M146.996 13.9985C146.996 13.2474 147.61 12.6328 148.384 12.6328C149.135 12.6328 149.795 13.2019 149.795 13.9985C149.795 14.7497 149.158 15.3415 148.384 15.3415C147.61 15.3187 146.996 14.7269 146.996 13.9985ZM147.314 28.3612V17.7997H149.408V28.3612H147.314Z" fill="#0B5ED7"/>
<path d="M153.096 25.2428V19.5296H151.07V17.8225H153.096V14.7724H155.167V17.7997H157.967V19.5068H155.167V25.0152C155.167 26.2899 155.622 26.7906 156.669 26.7906C157.056 26.7906 157.534 26.6996 157.898 26.5175L157.967 28.2246C157.466 28.4067 156.829 28.5205 156.191 28.5205C154.188 28.5433 153.096 27.4279 153.096 25.2428Z" fill="#0B5ED7"/>
<path d="M159.082 25.3793C159.082 22.2155 162.838 21.8058 166.366 21.8058H166.434V21.5098C166.434 19.9393 165.387 19.1882 163.816 19.1882C162.633 19.1882 161.518 19.7117 160.812 20.4173L159.697 19.0743C160.721 18.0956 162.314 17.481 164.021 17.481C167.049 17.481 168.437 19.2792 168.437 21.6237V26.2443C168.437 26.9499 168.483 27.8376 168.596 28.3384H166.707C166.593 27.8604 166.525 27.3141 166.525 26.8133H166.457C165.706 27.9514 164.499 28.5888 162.906 28.5888C161.244 28.6343 159.082 27.8149 159.082 25.3793ZM166.457 23.8998V23.3536H165.933C163.862 23.3536 161.222 23.5812 161.222 25.3566C161.222 26.6085 162.337 26.9954 163.384 26.9954C165.364 26.9954 166.457 25.6753 166.457 23.8998Z" fill="#0B5ED7"/>
<path d="M171.738 28.3612V11.5175H173.832V28.3612H171.738Z" fill="#0B5ED7"/>
<path d="M176.518 23.1032C176.518 19.8027 178.885 17.5038 181.98 17.5038C185.099 17.5038 187.056 19.6206 187.056 22.9894C187.056 23.217 187.056 23.4674 187.034 23.695H178.657C178.725 25.4932 180.251 26.9044 182.094 26.9044C183.528 26.9044 184.575 26.1988 185.167 25.2883L186.647 26.4719C185.508 27.9514 183.961 28.6343 182.094 28.6343C178.885 28.657 176.518 26.4264 176.518 23.1032ZM184.939 22.1472C184.894 20.4856 183.915 19.1654 181.98 19.1654C180.182 19.1654 178.794 20.5083 178.657 22.1472H184.939Z" fill="#0B5ED7"/>
</svg>
